<svg width="110" height="104" viewBox="0 0 110 104" fill="none" xmlns="http://www.w3.org/2000/svg">
<path fill-rule="evenodd" clip-rule="evenodd" d="M49.0595 71.976C53.7955 71.976 56.6969 69.0107 57.7635 63.08L59.9834 50.6385C59.2126 50.4458 58.4134 50.2809 57.5854 50.1461C55.2294 49.7627 53.1096 49.4366 51.194 49.1679L51.1475 49.4346L49.3795 59.56C48.8249 62.504 48.0142 63.976 46.9475 63.976C46.1795 63.976 45.3689 63.4213 44.5155 62.312C43.7049 61.16 43.0222 59.56 42.4675 57.512C41.9555 55.464 41.6995 53.1173 41.6995 50.472C41.6995 49.7173 41.712 48.9726 41.737 48.238C38.6258 48.1489 36.4316 48.4356 34.618 49.0963C34.603 49.7184 34.5955 50.3476 34.5955 50.984C34.5955 55.592 35.2569 59.4747 36.5795 62.632C37.9022 65.7893 39.6515 68.136 41.8275 69.672C44.0462 71.208 46.4569 71.976 49.0595 71.976ZM32.6007 50.0621C32.5973 50.3679 32.5955 50.6752 32.5955 50.984C32.5955 55.7708 33.2808 59.9338 34.7349 63.4048C36.1618 66.8109 38.1153 69.4997 40.6742 71.3059L40.6816 71.3112L40.6891 71.3164C43.2292 73.0749 46.0344 73.976 49.0595 73.976C51.8825 73.976 54.3358 73.0735 56.2171 71.1507C58.0483 69.2791 59.1583 66.6239 59.732 63.434L59.7325 63.4313L61.9152 51.198C82.3428 57.9619 80.4064 85.4867 66.6509 83.559C65.6685 83.4213 64.626 83.9215 63.4028 84.5085C60.846 85.7354 57.4995 87.3411 52.2621 84.2927C39.4026 73.9591 30.7021 70.6102 28.6894 70.892C26.956 70.8022 25.0337 71.3903 23.1635 71.9624C20.5255 72.7694 17.9911 73.5447 16.2366 72.3411C11.1397 68.8444 17.7058 63.0768 22.9728 58.4503C23.6181 57.8836 24.2438 57.334 24.8262 56.8077C25.8427 55.8893 26.7344 55.0441 27.5485 54.2725C29.4559 52.4648 30.9374 51.0607 32.6007 50.0621ZM43.7348 48.3377C43.7113 49.0387 43.6995 49.7501 43.6995 50.472C43.6995 52.9845 43.9424 55.1569 44.4031 57.0081C44.9167 58.8988 45.511 60.2385 46.1271 61.1265C46.3476 61.4099 46.5354 61.6086 46.6867 61.7446C46.9187 61.2584 47.177 60.4442 47.4117 59.2026L49.1693 49.1362C49.1283 49.1304 49.1002 49.1266 49.0835 49.1246C49.0734 49.1233 49.0833 49.1247 49.1031 49.1266L49.1033 49.1266L49.1033 49.1266C49.1102 49.1272 49.1354 49.1297 49.1701 49.1317L49.2104 48.901C49.1502 48.8932 49.0903 48.8856 49.0305 48.878L48.9868 49.1168C48.4206 49.0224 47.8231 48.8835 47.255 48.6645C45.9753 48.5203 44.807 48.4114 43.7348 48.3377ZM46.4509 62.14C46.4481 62.1431 46.4467 62.1449 46.4468 62.1452C46.4469 62.1458 46.4518 62.1413 46.4613 62.1299C46.4568 62.134 46.4533 62.1375 46.4509 62.14ZM47.0241 61.9842C47.0266 61.9849 47.0278 61.9854 47.0278 61.9854C47.0278 61.9855 47.0266 61.9851 47.0241 61.9842Z" fill="#FFB800"/>
<path d="M58.7478 63.257L58.748 63.2556L61.3642 48.593C66.0988 48.1825 70.2478 47.0419 73.7878 45.1455C77.5045 43.1544 80.3753 40.5655 82.3576 37.3668C84.3348 34.1763 85.3236 30.6653 85.3236 26.856C85.3236 23.6632 84.5577 20.7746 83.0078 18.218C81.4908 15.602 79.226 13.5578 76.2618 12.0751C73.314 10.5791 69.7583 9.856 65.6356 9.856C59.7722 9.856 54.3799 11.4241 49.4817 14.557C44.5979 17.6651 40.7287 22.3503 37.8487 28.5465L37.8474 28.5493C34.998 34.7304 33.5956 42.2207 33.5956 50.984C33.5956 55.6814 34.2689 59.7042 35.6572 63.0184C37.032 66.3001 38.8835 68.8179 41.2509 70.489L41.2509 70.489L41.2584 70.4942C43.6377 72.1414 46.2457 72.976 49.0596 72.976C51.655 72.976 53.8364 72.1541 55.5024 70.4514C57.1433 68.7742 58.1943 66.3346 58.7478 63.257ZM50.2693 47.2772C50.2392 47.4873 50.1448 47.6638 50.0339 47.7913C49.821 48.0361 49.5555 48.0974 49.5246 48.1046C49.5234 48.1048 49.5226 48.105 49.5221 48.1051C49.3994 48.1358 49.2972 48.1347 49.2944 48.1348C49.2658 48.1352 49.2436 48.1342 49.2344 48.1337C49.2152 48.1327 49.2015 48.1314 49.1991 48.1312L49.1989 48.1312C49.1962 48.1309 49.1951 48.1308 49.196 48.1309C49.197 48.131 49.2006 48.1314 49.2075 48.1323C49.2592 48.1387 49.3714 48.1545 49.5541 48.1814C49.7458 48.2096 50.0046 48.2484 50.3308 48.298L48.3957 59.3813C48.1254 60.8137 47.8082 61.793 47.4796 62.3896C47.3173 62.6844 47.1774 62.8387 47.0826 62.9131C47.0023 62.976 46.9644 62.976 46.9478 62.976H46.9476C46.672 62.976 46.1255 62.7594 45.3212 61.7192C44.6086 60.7002 43.9699 59.2308 43.4354 57.26C42.949 55.3105 42.6996 53.051 42.6996 50.472C42.6996 44.2492 43.5615 38.7563 45.2647 33.9781C47.0109 29.1561 49.4409 25.455 52.5231 22.818C55.6231 20.2021 59.2324 18.896 63.3956 18.896C67.1488 18.896 69.7017 19.7648 71.2728 21.2994L71.2813 21.3076L71.2899 21.3156C72.9432 22.8562 73.7876 24.8634 73.7876 27.432C73.7876 31.2344 72.7502 34.0908 70.7871 36.1306C69.0269 37.9594 66.4269 39.2315 62.8855 39.8672L64.7631 28.8292C64.8644 28.3152 64.9076 27.693 64.9076 26.984C64.9076 25.6709 64.5423 24.5007 63.6007 23.7301C62.7236 22.9349 61.4156 22.656 59.9396 22.656C58.5218 22.656 57.235 23.0255 56.1164 23.7869C54.923 24.5846 54.2489 25.8968 53.9634 27.5108C53.0319 32.5953 52.2939 36.7479 51.7498 39.967C51.3641 39.9154 50.9115 39.8467 50.3899 39.7599C50.0793 39.7 49.6857 39.68 49.2516 39.68C48.1036 39.68 47.0828 40.0266 46.3045 40.8049L46.2903 40.819L46.2768 40.8337C45.5553 41.6153 45.2436 42.6259 45.2436 43.752C45.2436 44.7898 45.4667 45.7367 45.9784 46.5328L45.9877 46.5471L45.9974 46.5612C46.6272 47.4709 47.8233 47.9091 49.1512 48.1304L49.3327 47.1401C49.4504 47.1549 49.7626 47.2006 50.2693 47.2772Z" fill="white" stroke="black" stroke-width="2"/>
<path d="M31.6515 55.7741C21.5532 50.0042 9.91881 65.6866 14.6515 72.5C17.1317 76.0705 27.8343 72.6499 31.6515 72.5C35.4687 72.35 51.5 83.5 51.5 83.5C51.5 83.5 41.7498 61.544 31.6515 55.7741Z" fill="#805C00"/>
</svg>
